<svg width="1440" height="1466" viewBox="0 0 1440 1466" fill="none" xmlns="http://www.w3.org/2000/svg">
<g clip-path="url(#clip0_6116_16983)">
<g opacity="0.1" clip-path="url(#clip1_6116_16983)">
<rect x="821.885" y="780.859" width="80.2262" height="80.2262" fill="#1D7FBA" fill-opacity="0.24"/>
<rect x="1145.08" y="216.983" width="80.2262" height="79.0801" fill="#023A5B" fill-opacity="0.12"/>
<rect x="1063.71" y="297.209" width="80.2262" height="79.0801" fill="#023A5B" fill-opacity="0.12"/>
<rect x="498.688" y="136.757" width="80.2262" height="79.0801" fill="#1D7FBA" fill-opacity="0.36"/>
<rect x="417.316" y="216.983" width="80.2262" height="79.0801" fill="#1D7FBA" fill-opacity="0.36"/>
<rect x="417.316" y="136.757" width="80.2262" height="79.0801" fill="#1D7FBA" fill-opacity="0.36"/>
<rect x="418.462" y="780.859" width="80.2262" height="80.2262" fill="#005C93" fill-opacity="0.32"/>
<rect x="338.236" y="780.859" width="80.2262" height="80.2262" fill="#005C93" fill-opacity="0.32"/>
<rect x="338.236" y="861.085" width="80.2262" height="81.3723" fill="#005C93" fill-opacity="0.32"/>
<rect x="176.637" y="700.633" width="80.2262" height="80.2262" fill="#005C93" fill-opacity="0.12"/>
<rect x="1330.23" y="102.226" width="80.2262" height="80.2262" transform="rotate(-180 1330.23 102.226)" fill="#023A5B" fill-opacity="0.48"/>
<rect x="1414.45" y="187.913" width="80.2262" height="80.2262" transform="rotate(-180 1414.45 187.913)" fill="#023A5B" fill-opacity="0.48"/>
<rect x="1415.33" y="103.372" width="80.2262" height="81.3723" transform="rotate(-180 1415.33 103.372)" fill="#023A5B" fill-opacity="0.48"/>
<rect x="176.638" y="134.465" width="81.3723" height="82.5184" fill="#005C93" fill-opacity="0.32"/>
<rect x="95.2656" y="54.2383" width="81.3723" height="80.2262" fill="#005C93" fill-opacity="0.32"/>
<rect x="15.0391" y="55.3843" width="81.3723" height="80.2262" fill="#005C93" fill-opacity="0.32"/>
<rect x="95.2656" y="134.465" width="81.3723" height="82.5184" fill="#005C93" fill-opacity="0.32"/>
<rect x="418.462" y="-25.9878" width="81.3723" height="80.2262" fill="#95D6FD" fill-opacity="0.6"/>
<rect x="176.638" y="296.063" width="80.2262" height="81.3723" fill="#005C93" fill-opacity="0.12"/>
<rect x="1243" y="752" width="80.2262" height="80.2262" fill="#005C93" fill-opacity="0.32"/>
<rect x="1323.23" y="832.226" width="80.2262" height="80.2262" fill="#005C93" fill-opacity="0.32"/>
</g>
<g opacity="0.1" clip-path="url(#clip2_6116_16983)">
<rect x="619.115" y="704.141" width="80.2262" height="80.2262" transform="rotate(180 619.115 704.141)" fill="#1D7FBA" fill-opacity="0.24"/>
<rect x="295.917" y="1268.02" width="80.2262" height="79.0801" transform="rotate(180 295.917 1268.02)" fill="#023A5B" fill-opacity="0.12"/>
<rect x="377.29" y="1187.79" width="80.2262" height="79.0801" transform="rotate(180 377.29 1187.79)" fill="#023A5B" fill-opacity="0.12"/>
<rect x="942.312" y="1348.24" width="80.2262" height="79.0801" transform="rotate(180 942.312 1348.24)" fill="#1D7FBA" fill-opacity="0.36"/>
<rect x="1023.68" y="1268.02" width="80.2262" height="79.0801" transform="rotate(180 1023.68 1268.02)" fill="#1D7FBA" fill-opacity="0.36"/>
<rect x="1023.68" y="1348.24" width="80.2262" height="79.0801" transform="rotate(180 1023.68 1348.24)" fill="#1D7FBA" fill-opacity="0.36"/>
<rect x="1022.54" y="704.141" width="80.2262" height="80.2262" transform="rotate(180 1022.54 704.141)" fill="#005C93" fill-opacity="0.32"/>
<rect x="1102.76" y="704.141" width="80.2262" height="80.2262" transform="rotate(180 1102.76 704.141)" fill="#005C93" fill-opacity="0.32"/>
<rect x="1102.76" y="623.915" width="80.2262" height="81.3723" transform="rotate(180 1102.76 623.915)" fill="#005C93" fill-opacity="0.32"/>
<rect x="1264.36" y="784.367" width="80.2262" height="80.2262" transform="rotate(180 1264.36 784.367)" fill="#005C93" fill-opacity="0.12"/>
<rect x="110.774" y="1382.77" width="80.2262" height="80.2262" fill="#023A5B" fill-opacity="0.48"/>
<rect x="26.5479" y="1297.09" width="80.2262" height="80.2262" fill="#023A5B" fill-opacity="0.48"/>
<rect x="25.6709" y="1381.63" width="80.2262" height="81.3723" fill="#023A5B" fill-opacity="0.48"/>
<rect x="1264.36" y="1350.54" width="81.3723" height="82.5184" transform="rotate(180 1264.36 1350.54)" fill="#005C93" fill-opacity="0.32"/>
<rect x="1345.73" y="1430.76" width="81.3723" height="80.2262" transform="rotate(180 1345.73 1430.76)" fill="#005C93" fill-opacity="0.32"/>
<rect x="1425.96" y="1429.62" width="81.3723" height="80.2262" transform="rotate(180 1425.96 1429.62)" fill="#005C93" fill-opacity="0.32"/>
<rect x="1345.73" y="1350.54" width="81.3723" height="82.5184" transform="rotate(180 1345.73 1350.54)" fill="#005C93" fill-opacity="0.32"/>
<rect x="1022.54" y="1510.99" width="81.3723" height="80.2262" transform="rotate(180 1022.54 1510.99)" fill="#95D6FD" fill-opacity="0.6"/>
<rect x="1264.36" y="1188.94" width="80.2262" height="81.3723" transform="rotate(180 1264.36 1188.94)" fill="#005C93" fill-opacity="0.12"/>
<rect x="198" y="733" width="80.2262" height="80.2262" transform="rotate(180 198 733)" fill="#005C93" fill-opacity="0.32"/>
<rect x="117.774" y="652.774" width="80.2262" height="80.2262" transform="rotate(180 117.774 652.774)" fill="#005C93" fill-opacity="0.32"/>
</g>
</g>
<defs>
<clipPath id="clip0_6116_16983">
<rect width="1440" height="1466" fill="white"/>
</clipPath>
<clipPath id="clip1_6116_16983">
<rect width="1440" height="1024" fill="white" transform="translate(0 10)"/>
</clipPath>
<clipPath id="clip2_6116_16983">
<rect width="1440" height="1024" fill="white" transform="matrix(-1 0 0 -1 1441 1475)"/>
</clipPath>
</defs>
</svg>
