<svg width="48" height="42" viewBox="0 0 48 42" fill="none" xmlns="http://www.w3.org/2000/svg">
<path d="M0.0057373 5.99988C0.0057373 4.40858 0.637878 2.88246 1.7631 1.75724C2.88831 0.632019 4.41444 -0.00012207 6.00574 -0.00012207H42.0057C43.597 -0.00012207 45.1232 0.632019 46.2484 1.75724C47.3736 2.88246 48.0057 4.40858 48.0057 5.99988V35.9999C48.0057 37.5912 47.3736 39.1173 46.2484 40.2425C45.1232 41.3677 43.597 41.9999 42.0057 41.9999H6.00574C4.41444 41.9999 2.88831 41.3677 1.7631 40.2425C0.637878 39.1173 0.0057373 37.5912 0.0057373 35.9999V5.99988ZM3.00574 32.9999V35.9999C3.00574 36.7955 3.32181 37.5586 3.88442 38.1212C4.44703 38.6838 5.21009 38.9999 6.00574 38.9999H42.0057C42.8014 38.9999 43.5644 38.6838 44.1271 38.1212C44.6897 37.5586 45.0057 36.7955 45.0057 35.9999V25.4999L33.6747 19.6589C33.3934 19.5179 33.0749 19.4691 32.7642 19.5191C32.4536 19.5692 32.1665 19.7157 31.9437 19.9379L20.8137 31.0679L12.8337 25.7519C12.5456 25.5601 12.2 25.4738 11.8556 25.5077C11.5111 25.5416 11.1889 25.6936 10.9437 25.9379L3.00574 32.9999ZM18.0057 13.4999C18.0057 12.3064 17.5316 11.1618 16.6877 10.3179C15.8438 9.47398 14.6992 8.99988 13.5057 8.99988C12.3123 8.99988 11.1677 9.47398 10.3238 10.3179C9.47984 11.1618 9.00574 12.3064 9.00574 13.4999C9.00574 14.6934 9.47984 15.8379 10.3238 16.6819C11.1677 17.5258 12.3123 17.9999 13.5057 17.9999C14.6992 17.9999 15.8438 17.5258 16.6877 16.6819C17.5316 15.8379 18.0057 14.6934 18.0057 13.4999Z" fill="#FAFAFA"/>
</svg>
