<svg width="60" height="60" viewBox="0 0 60 60" fill="none" xmlns="http://www.w3.org/2000/svg">
<g clip-path="url(#clip0_6291_17708)">
<path d="M59.651 30C59.651 13.6242 46.3757 0.348877 29.9998 0.348877C13.6239 0.348877 0.348633 13.6242 0.348633 30C0.348633 46.3759 13.6239 59.6512 29.9998 59.6512C46.3757 59.6512 59.651 46.3759 59.651 30Z" fill="#00337F"/>
<path d="M27.027 35.6755C27.027 37.7654 25.4539 39.4594 23.5135 39.4594C21.5732 39.4594 20 37.7654 20 35.6755C20 33.586 21.5732 31.8918 23.5135 31.8918C25.4539 31.8918 27.027 33.586 27.027 35.6755Z" fill="white" stroke="white" stroke-width="1.04651"/>
<path d="M20.8507 20.5652C21.0131 21.026 21.0897 21.4913 21.0806 21.9612C21.0715 22.3947 20.9926 22.8333 20.8439 23.2759C20.6951 23.7185 20.4805 24.1435 20.2012 24.5503C19.8855 25.0201 19.5114 25.4428 19.0787 25.8177C18.6461 26.1926 18.1726 26.4976 17.6582 26.7325C17.1444 26.9766 16.6255 27.1256 16.1026 27.1797C16.0305 27.1888 15.9561 27.1956 15.8795 27.2001C15.8028 27.2047 15.7285 27.207 15.6564 27.207C15.2504 27.207 14.8762 27.1495 14.5339 27.034C14.4709 27.0164 14.4209 26.9828 14.3852 26.9345C14.3488 26.8855 14.3352 26.8258 14.3448 26.7553C14.363 26.6136 14.4442 26.534 14.5884 26.5157C15.0029 26.4885 15.4088 26.394 15.8057 26.2307C16.2025 26.068 16.5767 25.8576 16.9281 25.5993C17.2795 25.341 17.5929 25.0406 17.8683 24.6965C18.1431 24.3523 18.3662 23.9768 18.5377 23.5695C18.8085 22.9363 18.9414 22.2912 18.9368 21.6353C18.9322 20.9793 18.7971 20.382 18.5308 19.8433C18.2646 19.3051 17.8723 18.8568 17.3539 18.4995C16.835 18.1423 16.1929 17.9409 15.4264 17.8954C14.8581 17.9045 14.3261 18.0308 13.8305 18.2748C13.3342 18.5189 12.8902 18.8329 12.4979 19.2169C12.1056 19.6009 11.7763 20.0367 11.5106 20.5248C11.2444 21.0129 11.0553 21.5055 10.9423 22.0022C10.8293 22.4994 10.8026 22.9761 10.8611 23.4318C10.9196 23.8881 11.0797 24.2789 11.3414 24.6043C11.3954 24.6765 11.3817 24.7625 11.3011 24.862C11.2199 24.9616 11.1052 25.0452 10.9559 25.1129C10.8066 25.1806 10.6448 25.2193 10.4688 25.2278C10.2928 25.2369 10.1418 25.1919 10.0158 25.0924C9.71824 24.8034 9.50363 24.4848 9.37306 24.1367C9.24246 23.7891 9.18173 23.4318 9.19024 23.066C9.19931 22.7002 9.26234 22.3338 9.37987 21.9681C9.49683 21.6023 9.65067 21.2518 9.83974 20.9179C10.1191 20.4212 10.4802 19.9536 10.9219 19.515C11.3636 19.077 11.8439 18.6952 12.3622 18.3698C12.8806 18.0444 13.4217 17.7873 13.9855 17.5973C14.5487 17.4073 15.0965 17.3083 15.6291 17.2992C16.0259 17.2901 16.4205 17.3151 16.8129 17.3737C17.2052 17.4323 17.5884 17.5341 17.9626 17.6786C18.3367 17.8231 18.7017 18.02 19.0583 18.268C19.4143 18.5166 19.7549 18.8306 20.0797 19.2101C20.2511 19.4183 20.4021 19.6367 20.5327 19.8677C20.6633 20.0981 20.7695 20.3308 20.8507 20.5657V20.5652ZM10.8816 30.1066C10.8276 29.9439 10.8362 29.6771 10.9088 29.3067C10.9809 28.9364 11.0894 28.5023 11.2336 28.0057C11.3778 27.5085 11.5515 26.9669 11.7542 26.3792C11.9569 25.7921 12.1647 25.2045 12.3764 24.6174C12.5882 24.0303 12.796 23.4585 12.9987 22.9027C13.2014 22.3469 13.3751 21.848 13.5193 21.4049C13.6636 20.9623 13.7674 20.5965 13.8305 20.3069C13.8935 20.0179 13.898 19.8461 13.8441 19.792C13.7987 19.7562 13.81 19.713 13.8782 19.6635C13.9457 19.614 14.0428 19.573 14.1688 19.5418C14.2949 19.5105 14.4396 19.49 14.6015 19.4809C14.7639 19.4718 14.9171 19.4854 15.0613 19.5213C15.2056 19.5577 15.3316 19.6254 15.44 19.7244C15.5485 19.8239 15.6115 19.9638 15.6297 20.1448C15.6654 20.4884 15.6092 20.9423 15.4605 21.5067C15.3117 22.0716 15.1153 22.6905 14.8723 23.3635C14.6287 24.0366 14.3602 24.7346 14.0672 25.4576C13.7742 26.1807 13.5034 26.8673 13.2559 27.5176C13.0078 28.1684 12.8028 28.7532 12.6404 29.2726C12.4781 29.792 12.406 30.1874 12.4241 30.4587C12.4241 30.5401 12.3611 30.6192 12.2345 30.696C12.1079 30.7727 11.9592 30.8109 11.7883 30.8109C11.6174 30.8109 11.4431 30.7614 11.2676 30.6618C11.0916 30.5623 10.9633 30.3774 10.8821 30.106L10.8816 30.1066Z" fill="#FFCC00"/>
<path d="M25.5741 24.0269C25.4257 24.2986 25.2499 24.5881 25.0467 24.8963C24.8434 25.2044 24.6233 25.5148 24.3858 25.8276C24.1483 26.1403 23.9033 26.4258 23.6508 26.683C23.3983 26.9407 23.1433 27.1521 22.8859 27.3178C22.6284 27.4834 22.3809 27.5662 22.1434 27.5662C21.9451 27.5755 21.7743 27.5384 21.6309 27.4556C21.4875 27.3728 21.371 27.2558 21.2818 27.1035C21.1926 26.9518 21.1334 26.7676 21.1035 26.5515C21.0736 26.3355 21.0736 26.1032 21.1035 25.8548C21.1434 25.5513 21.2201 25.2293 21.3335 24.8887C21.4476 24.5488 21.5785 24.2082 21.7269 23.8676C21.8753 23.5277 22.0262 23.1981 22.1802 22.8813C22.3335 22.5639 22.4669 22.2767 22.581 22.0189C22.6945 21.7618 22.7743 21.5452 22.8185 21.3703C22.8628 21.1953 22.8503 21.076 22.7811 21.0118C22.7119 20.9567 22.7437 20.8924 22.8778 20.8183C23.0112 20.7448 23.177 20.7037 23.3752 20.6944C23.5735 20.6851 23.7786 20.7268 23.9918 20.8183C24.2044 20.9104 24.3559 21.0946 24.445 21.3703C24.5342 21.6373 24.5192 21.9616 24.4008 22.3433C24.2817 22.725 24.1159 23.1228 23.9033 23.5369C23.6901 23.9511 23.4625 24.3605 23.22 24.7648C22.9775 25.1696 22.7743 25.5304 22.6109 25.8479C22.4476 26.1652 22.3535 26.4183 22.3285 26.6065C22.3036 26.7954 22.4052 26.8805 22.6328 26.862C22.7319 26.8527 22.8578 26.7791 23.0118 26.6413C23.1652 26.5035 23.336 26.3263 23.5243 26.1102C23.7125 25.8942 23.9052 25.6526 24.1034 25.3856C24.3017 25.1192 24.4893 24.8522 24.6676 24.5852C24.8459 24.3188 25.0043 24.0657 25.1427 23.8265C25.2811 23.5873 25.3802 23.3898 25.4394 23.2335C25.4693 23.1599 25.5186 23.1142 25.5878 23.0956C25.657 23.0771 25.7212 23.0771 25.7811 23.0956C25.8403 23.1142 25.887 23.1506 25.922 23.2063C25.9562 23.2613 25.9537 23.3215 25.9145 23.3858C25.8353 23.5421 25.7212 23.7564 25.5728 24.0275L25.5741 24.0269ZM24.9282 19.7289C24.9824 19.6183 25.0417 19.5082 25.1065 19.3976C25.1707 19.287 25.2299 19.1816 25.2848 19.0802C25.339 18.9789 25.3665 18.9007 25.3665 18.8456C25.3665 18.6157 25.2923 18.4269 25.1439 18.2798C24.9955 18.1327 24.8297 18.0227 24.6464 17.9485C24.4631 17.875 24.2973 17.8379 24.1489 17.8379C24.0006 17.8379 23.9264 17.8703 23.9264 17.9346C23.9264 17.9896 23.8964 18.0678 23.8372 18.1692C23.778 18.2706 23.7106 18.3812 23.6365 18.5005C23.5623 18.6204 23.4956 18.7327 23.4357 18.8387C23.3765 18.9447 23.3466 19.0298 23.3466 19.0941C23.3466 19.324 23.4257 19.5152 23.5841 19.6669C23.7425 19.8187 23.9133 19.9293 24.0966 19.9982C24.2798 20.0671 24.4507 20.1019 24.609 20.1019C24.7674 20.1019 24.8465 20.0654 24.8465 19.9913C24.8465 19.927 24.874 19.8395 24.9282 19.7289Z" fill="#FFCC00"/>
<path d="M24.3552 26.6128C24.3018 26.4484 24.3175 26.1839 24.4019 25.8183C24.4869 25.4533 24.6164 25.0262 24.7909 24.5375C24.9653 24.0495 25.1685 23.5218 25.4009 22.9555C25.6334 22.3893 25.8726 21.819 26.1185 21.2436C26.3645 20.6681 26.6014 20.1094 26.8294 19.5656C27.0573 19.0223 27.2559 18.536 27.4259 18.1071C27.5959 17.6783 27.7208 17.3219 27.8013 17.039C27.8818 16.7562 27.8953 16.5872 27.8413 16.5326C27.7788 16.478 27.8075 16.4142 27.9285 16.3406C28.049 16.2676 28.2009 16.2267 28.3844 16.2176C28.5673 16.2084 28.753 16.2498 28.941 16.3406C29.129 16.432 29.2629 16.6148 29.3434 16.8884C29.3969 17.0804 29.3704 17.3771 29.2629 17.7789C29.1554 18.1807 28.999 18.644 28.7936 19.1689C28.5876 19.6943 28.3489 20.2577 28.076 20.8601C27.803 21.4626 27.5284 22.061 27.2514 22.6543C27.4394 22.4991 27.6494 22.3278 27.8818 22.141C28.1142 21.9541 28.3489 21.7598 28.5859 21.5586C28.8228 21.358 29.053 21.1545 29.2764 20.9493C29.4999 20.744 29.6985 20.5543 29.873 20.3807C30.0475 20.2071 30.1882 20.0496 30.2951 19.9082C30.4026 19.7668 30.4561 19.6547 30.4561 19.5725C30.4561 19.4903 30.5231 19.4678 30.657 19.5041C30.791 19.5408 30.9249 19.6254 31.0594 19.7576C31.1934 19.8898 31.2919 20.0588 31.3543 20.264C31.4168 20.4692 31.3763 20.6952 31.2339 20.9418C31.1264 21.1332 30.9592 21.3206 30.7313 21.5034C30.5034 21.6862 30.2461 21.8593 29.9602 22.0237C29.6743 22.1881 29.3749 22.3433 29.062 22.4893C28.7491 22.6353 28.4497 22.7681 28.1638 22.8865C28.2977 23.097 28.4654 23.393 28.6664 23.777C28.8673 24.1604 29.093 24.583 29.3434 25.044C29.5933 25.505 29.8618 25.973 30.1477 26.4478C30.4336 26.9226 30.7308 27.3561 31.0392 27.7487C31.3476 28.1414 31.656 28.4633 31.9644 28.7145C32.2728 28.9657 32.5745 29.0956 32.8694 29.1048C32.9499 29.1048 32.9831 29.1663 32.9701 29.2899C32.9572 29.4135 32.8964 29.5481 32.7889 29.6941C32.6814 29.8401 32.5295 29.9746 32.3331 30.0982C32.1361 30.2212 31.8991 30.2781 31.6222 30.2695C31.2018 30.2603 30.8264 30.0867 30.4961 29.7492C30.1657 29.4118 29.8679 28.9893 29.6046 28.4823C29.3406 27.9758 29.1037 27.428 28.8937 26.8387C28.6838 26.2501 28.4913 25.6953 28.3174 25.1745C28.1435 24.6537 27.982 24.2139 27.8345 23.8529C27.6871 23.4925 27.5374 23.2843 27.3854 23.2298C27.2599 23.2936 27.1507 23.351 27.0567 23.401C26.9627 23.4511 26.8845 23.4993 26.822 23.5448C26.625 23.965 26.4444 24.3645 26.2789 24.7434C26.1134 25.1222 25.975 25.4625 25.863 25.7637C25.751 26.065 25.6705 26.3208 25.6215 26.5306C25.572 26.741 25.5698 26.8864 25.6148 26.9687C25.6502 27.0416 25.6215 27.1169 25.5276 27.1946C25.4336 27.2722 25.3131 27.313 25.1657 27.3176C25.0182 27.3222 24.8663 27.2745 24.7098 27.1739C24.5533 27.0733 24.4351 26.8864 24.3547 26.6122L24.3552 26.6128Z" fill="#FFCC00"/>
<path d="M34.8357 21.6775C34.8357 21.6027 34.856 21.5326 34.8958 21.4672C34.9359 21.4018 34.9879 21.3458 35.0503 21.2987C35.0053 21.1861 34.9338 21.1302 34.8357 21.1302C34.71 21.1208 34.5714 21.1791 34.4197 21.3058C34.2676 21.4318 34.1041 21.6144 33.9294 21.853C33.7547 22.0916 33.5738 22.3862 33.3856 22.7373C33.1979 23.0885 33.0096 23.4791 32.8214 23.9091C32.7047 24.1807 32.6089 24.4729 32.5328 24.7864C32.4567 25.0998 32.4139 25.3991 32.4055 25.6848C32.3964 25.9705 32.4235 26.2203 32.486 26.436C32.5486 26.6516 32.6608 26.7918 32.8219 26.8572C32.9471 26.9131 33.079 26.899 33.2181 26.8154C33.3568 26.7311 33.4954 26.6003 33.6347 26.4224C33.7733 26.2445 33.9164 26.0295 34.0641 25.7767C34.2118 25.524 34.3549 25.26 34.4936 24.9837C34.6322 24.708 34.7664 24.4317 34.8965 24.1554C35.0263 23.8797 35.1498 23.6246 35.2656 23.3907C35.3908 23.082 35.5143 22.7898 35.635 22.5135C35.7553 22.2377 35.8565 21.9897 35.9371 21.7694C36.0177 21.5497 36.071 21.3623 36.0983 21.2079C36.1251 21.0536 36.1115 20.9481 36.0581 20.8922C35.9957 20.8362 36.0243 20.7708 36.1453 20.6954C36.266 20.6206 36.416 20.5787 36.5953 20.5693C36.7743 20.5599 36.9599 20.6023 37.1524 20.6954C37.3446 20.7891 37.4817 20.9764 37.5623 21.2568C37.6429 21.5284 37.6293 21.8583 37.5222 22.2466C37.4148 22.6348 37.2648 23.0396 37.0726 23.4608C36.8796 23.8821 36.6742 24.2986 36.4548 24.7098C36.2357 25.1216 36.0519 25.4886 35.9043 25.8115C35.7567 26.1343 35.6716 26.3918 35.6489 26.5832C35.6263 26.7753 35.7184 26.8619 35.9238 26.8431C36.0044 26.8336 36.116 26.7588 36.2598 26.6186C36.4031 26.4784 36.5598 26.2981 36.73 26.0783C36.9002 25.8586 37.0764 25.6129 37.2602 25.3413C37.4434 25.0703 37.6136 24.7987 37.7702 24.5272C37.9269 24.2561 38.0678 23.9987 38.193 23.7554C38.3183 23.5121 38.4076 23.3112 38.4613 23.1521C38.4885 23.0773 38.5328 23.0308 38.5952 23.0119C38.658 22.993 38.7159 22.993 38.77 23.0119C38.8237 23.0308 38.8666 23.0679 38.8973 23.1244C38.9284 23.1804 38.9263 23.2417 38.8907 23.307C38.8192 23.4661 38.7159 23.6841 38.582 23.9598C38.4477 24.2361 38.2889 24.5307 38.1051 24.8441C37.9213 25.1575 37.7224 25.4733 37.5076 25.7914C37.293 26.1096 37.0715 26.4 36.843 26.6616C36.6149 26.9237 36.3843 27.1388 36.1516 27.3073C35.9189 27.4758 35.695 27.56 35.4805 27.56C35.14 27.5789 34.8846 27.4339 34.7151 27.1246C34.5448 26.8159 34.4823 26.423 34.5268 25.9458C34.3566 26.2357 34.178 26.5002 33.9897 26.7388C33.8015 26.9774 33.598 27.1671 33.3788 27.3073C33.1595 27.4475 32.9268 27.5317 32.6805 27.56C32.4342 27.5883 32.1637 27.537 31.8684 27.4057C31.5105 27.256 31.2529 27.0363 31.0962 26.7458C30.9395 26.456 30.8477 26.1402 30.8212 25.7985C30.7941 25.4568 30.8212 25.1016 30.9018 24.7316C30.9824 24.3622 31.081 24.0228 31.1971 23.7141C31.4118 23.1433 31.6514 22.6543 31.9157 22.2472C32.1794 21.8401 32.4596 21.5084 32.7549 21.2504C33.0502 20.9929 33.3545 20.8085 33.6679 20.696C33.9813 20.5834 34.2991 20.5322 34.6215 20.5416C34.7291 20.551 34.843 20.5723 34.9642 20.6047C35.0849 20.6377 35.1969 20.6913 35.3001 20.7661C35.4027 20.8409 35.4899 20.9417 35.5621 21.0677C35.6336 21.1938 35.6699 21.3511 35.6699 21.5379C35.6699 21.7441 35.6245 21.8843 35.5356 21.9591C35.4641 22.0433 35.3699 22.0852 35.2537 22.0852C35.1463 22.0852 35.0503 22.048 34.9652 21.9727C34.8802 21.8978 34.8379 21.7994 34.8379 21.6781L34.8357 21.6775Z" fill="#FFCC00"/>
<path d="M38.3227 31.1364C38.3995 31.4707 38.3963 31.897 38.3147 32.4161C38.2324 32.9351 38.0879 33.4822 37.8804 34.0587C37.6725 34.6351 37.4042 35.2144 37.0763 35.797C36.7484 36.3795 36.379 36.9038 35.9691 37.3709C35.5589 37.8377 35.1131 38.2127 34.6318 38.4949C34.1502 38.7778 33.6475 38.9191 33.1222 38.9191C32.7064 38.9191 32.3756 38.8472 32.1294 38.7024C31.8832 38.5584 31.7 38.3682 31.5797 38.1321C31.4594 37.8959 31.3964 37.6189 31.3908 37.3018C31.3851 36.9851 31.4152 36.6425 31.481 36.2728C31.2728 36.6185 31.0572 36.9506 30.8331 37.2673C30.609 37.5847 30.3792 37.861 30.1438 38.0972C29.9084 38.3334 29.6735 38.5214 29.4381 38.6595C29.2026 38.7977 28.9706 38.873 28.7408 38.8842C28.5224 38.8957 28.3335 38.8496 28.1747 38.746C28.0164 38.6421 27.8876 38.4956 27.7889 38.3047C27.6902 38.1146 27.6249 37.8837 27.5921 37.613C27.5592 37.342 27.5592 37.051 27.5921 36.7399C27.6357 36.3596 27.7208 35.956 27.8462 35.5297C27.9721 35.1035 28.1168 34.6764 28.2808 34.25C28.4447 33.8237 28.6115 33.4111 28.7811 33.0134C28.9507 32.6158 29.0983 32.2552 29.2242 31.9323C29.3496 31.6094 29.4375 31.3355 29.4869 31.1107C29.5362 30.8859 29.522 30.7388 29.446 30.6694C29.3694 30.6001 29.4052 30.5199 29.5527 30.4272C29.7002 30.3352 29.8834 30.2831 30.1024 30.2718C30.3208 30.2604 30.5478 30.3124 30.7832 30.4272C31.0181 30.5427 31.1854 30.7729 31.2836 31.1191C31.3822 31.4533 31.3658 31.86 31.2342 32.3383C31.1031 32.8167 30.9199 33.3154 30.6845 33.8344C30.449 34.3535 30.1977 34.8695 29.9299 35.3818C29.6616 35.895 29.4375 36.3506 29.2571 36.7482C29.0767 37.1459 28.9723 37.4634 28.9451 37.6995C28.9178 37.936 29.0296 38.0368 29.2815 38.0023C29.4125 37.9908 29.5742 37.8844 29.7654 37.6824C29.9566 37.4808 30.162 37.2213 30.3804 36.9045C30.5988 36.5874 30.8234 36.2274 31.0532 35.8231C31.283 35.4195 31.5042 35.0047 31.7175 34.5783C31.9309 34.1519 32.1305 33.737 32.3166 33.3333C32.5027 32.9297 32.661 32.5668 32.7926 32.2438C32.9458 31.8402 33.0553 31.5 33.1205 31.2237C33.1863 30.9469 33.1749 30.7627 33.0876 30.6706C33.011 30.6013 33.0468 30.5211 33.1942 30.4285C33.3417 30.3364 33.525 30.2844 33.744 30.273C33.9624 30.2616 34.1893 30.3137 34.4247 30.4285C34.6596 30.5439 34.8264 30.7741 34.925 31.1203C35.0238 31.4546 35.0074 31.8642 34.8757 32.3479C34.7441 32.8317 34.5637 33.3363 34.3345 33.8613C34.1048 34.3864 33.8614 34.9078 33.6044 35.4261C33.3474 35.9452 33.1449 36.4116 32.9974 36.8271C32.8499 37.2422 32.7898 37.5795 32.817 37.8391C32.8442 38.0986 33.0275 38.2284 33.3667 38.2284C33.706 38.2284 34.0089 38.0525 34.3101 37.7009C34.6108 37.3493 34.8898 36.9056 35.1469 36.3691C35.404 35.8329 35.6307 35.251 35.8278 34.6226C36.0246 33.9941 36.1885 33.4009 36.32 32.8412C36.4512 32.2821 36.5384 31.8008 36.5827 31.3971C36.6263 30.9935 36.6263 30.7573 36.5827 30.688C36.5391 30.6186 36.5879 30.5385 36.7303 30.4458C36.8722 30.3537 37.0474 30.3017 37.2549 30.2903C37.4628 30.2789 37.6707 30.331 37.8786 30.4458C38.0862 30.5612 38.2338 30.7914 38.3217 31.1376L38.3227 31.1364Z" fill="#FFCC00"/>
<path d="M45.8118 33.3337C45.9457 33.4265 45.9796 33.5533 45.9126 33.7143C45.7221 34.1297 45.4957 34.5653 45.2331 35.0208C44.97 35.4767 44.6732 35.9208 44.3428 36.3534C44.0128 36.7863 43.6633 37.1843 43.2935 37.5481C42.9241 37.9113 42.5404 38.2088 42.1434 38.4391C41.7457 38.67 41.34 38.8196 40.926 38.8891C40.5122 38.9585 40.1034 38.9065 39.7005 38.7335C39.2529 38.5493 38.9317 38.281 38.7353 37.9287C38.5396 37.5767 38.4248 37.1871 38.391 36.7604C38.3575 36.3338 38.391 35.8922 38.4921 35.4366C38.5929 34.9814 38.7161 34.5624 38.8612 34.1817C39.1302 33.478 39.4291 32.8807 39.7595 32.3906C40.0891 31.9004 40.439 31.4995 40.8088 31.1877C41.1785 30.8759 41.5588 30.6455 41.9508 30.4953C42.3426 30.3456 42.7396 30.2703 43.1425 30.2703C43.5454 30.2703 43.8618 30.3744 44.0575 30.5821C44.2532 30.7897 44.3512 31.0608 44.3512 31.3953C44.3512 31.7299 44.2612 32.0991 44.0822 32.5031C43.9029 32.907 43.6486 33.302 43.3183 33.6886C42.9879 34.0752 42.5882 34.4271 42.1179 34.7443C41.6477 35.0616 41.1217 35.3009 40.5401 35.4624C40.4617 35.7628 40.4058 36.0596 40.3724 36.3534C40.3385 36.6478 40.3329 36.916 40.3556 37.1585C40.3776 37.4009 40.431 37.6025 40.515 37.7641C40.5995 37.9256 40.7247 38.0239 40.8932 38.0585C41.1391 38.1045 41.4049 38.0675 41.6906 37.9461C41.9763 37.8251 42.2672 37.643 42.5638 37.4009C42.8603 37.1585 43.1512 36.8759 43.4369 36.5529C43.7226 36.2295 43.9905 35.8898 44.2427 35.5318C44.4946 35.1746 44.7182 34.8197 44.9142 34.4672C45.1099 34.1153 45.2638 33.7898 45.3757 33.4893C45.4092 33.3972 45.4682 33.3337 45.5522 33.299C45.6363 33.2643 45.7228 33.2763 45.8121 33.3337H45.8118ZM40.8925 34.4241C40.8363 34.551 40.7913 34.6665 40.7585 34.77C41.43 34.5276 41.9808 34.1961 42.4124 33.7748C42.8428 33.3535 43.1645 32.9381 43.3776 32.5288C43.59 32.1195 43.6992 31.7646 43.7052 31.4642C43.7104 31.1643 43.6127 31.0088 43.4114 30.9968C43.109 30.9854 42.7288 31.2852 42.2693 31.8969C41.8103 32.5085 41.3515 33.3505 40.8932 34.4235L40.8925 34.4241Z" fill="#FFCC00"/>
<path d="M45.9303 33.9278C45.8985 33.9962 45.8476 34.0415 45.7789 34.0639C45.7095 34.0868 45.646 34.0868 45.5877 34.0639C45.5295 34.0415 45.4813 33.9985 45.4443 33.9361C45.4074 33.8737 45.4049 33.7971 45.4367 33.7064C45.4688 33.6046 45.527 33.4485 45.6118 33.2383C45.6969 33.0286 45.7817 32.8072 45.8671 32.574C45.9519 32.3415 46.0367 32.1142 46.1221 31.8927C46.2069 31.6713 46.2652 31.487 46.2972 31.3392C46.0527 31.2144 45.8434 31.0159 45.6683 30.7433C45.4928 30.4706 45.4053 30.1986 45.4053 29.9259C45.4053 29.5744 45.49 29.2735 45.6603 29.0232C45.8302 28.7735 46.0852 28.6487 46.4249 28.6487C46.6374 28.6487 46.8205 28.7423 46.975 28.9296C47.1285 29.1168 47.2112 29.3412 47.2217 29.6021C47.2217 29.7499 47.214 29.9542 47.1979 30.2151C47.1819 30.4765 47.1529 30.6921 47.1104 30.8622C47.1634 30.9076 47.2349 30.9364 47.3253 30.9476C47.4156 30.9588 47.5136 30.9647 47.62 30.9647C47.8538 30.9647 48.0366 30.9364 48.1698 30.8793C48.3027 30.8228 48.4168 30.7633 48.5124 30.7003C48.6079 30.6379 48.7039 30.5784 48.7995 30.5213C48.8954 30.4648 49.0227 30.4359 49.1818 30.4359C49.3939 30.4359 49.6067 30.493 49.8195 30.6061C50.0319 30.7197 50.1857 30.9411 50.2817 31.2703C50.3773 31.5995 50.3616 31.9999 50.2335 32.471C50.1062 32.9421 49.9283 33.4332 49.6998 33.9443C49.471 34.4555 49.2271 34.9609 48.9669 35.46C48.7063 35.9599 48.489 36.405 48.3135 36.7968C48.1384 37.1885 48.0372 37.5011 48.0107 37.7338C47.9842 37.9664 48.0927 38.0718 48.3372 38.0488C48.4332 38.0376 48.5654 37.9462 48.7356 37.776C48.9055 37.6057 49.0914 37.3874 49.2931 37.1205C49.4947 36.854 49.7019 36.5561 49.9147 36.2268C50.1268 35.8975 50.3288 35.5685 50.5203 35.2392C50.7114 34.9099 50.881 34.598 51.0296 34.3024C51.1785 34.0073 51.2849 33.763 51.3481 33.5698C51.3802 33.4791 51.4328 33.4226 51.5075 33.3996C51.5818 33.3773 51.6505 33.3773 51.7143 33.3996C51.7785 33.4226 51.8284 33.4679 51.8661 33.5357C51.9031 33.604 51.9003 33.6776 51.8584 33.7571C51.7729 33.9502 51.6512 34.214 51.4918 34.5491C51.3327 34.8841 51.1436 35.2417 50.926 35.6219C50.7086 36.0025 50.4721 36.3859 50.2171 36.7713C49.9621 37.1578 49.6991 37.5098 49.4281 37.8273C49.157 38.1454 48.8839 38.4063 48.6079 38.6104C48.3313 38.8148 48.0662 38.9174 47.8112 38.9174C47.5984 38.9285 47.4156 38.8832 47.2614 38.7813C47.1072 38.6788 46.9827 38.5347 46.8868 38.3467C46.7909 38.1593 46.7277 37.9323 46.6956 37.6654C46.6635 37.3985 46.6635 37.1118 46.6956 36.8055C46.7382 36.3628 46.839 35.8916 46.9988 35.3924C47.1578 34.8928 47.3329 34.4019 47.5241 33.919C47.7153 33.4368 47.9009 32.9851 48.0816 32.5652C48.2622 32.1454 48.3948 31.7879 48.4799 31.4923C48.257 31.583 48.0045 31.6372 47.7229 31.6543C47.4414 31.6713 47.1627 31.6401 46.8868 31.5606C46.8547 31.6401 46.7992 31.785 46.7193 31.9952C46.6395 32.2054 46.5519 32.4321 46.4563 32.6765C46.3607 32.9209 46.2652 33.1594 46.1696 33.392C46.0736 33.6246 45.9941 33.8036 45.9303 33.9284V33.9278Z" fill="#FFCC00"/>
<path d="M48.1082 24.5946C48.1082 27.4304 45.93 29.7297 43.2437 29.7297C40.5569 29.7297 38.3784 27.4309 38.3784 24.5946C38.3784 21.7583 40.5562 19.4595 43.2437 19.4595C45.9307 19.4595 48.1082 21.7583 48.1082 24.5946Z" fill="#FFCC00"/>
<path d="M42.9328 24.0471C42.9244 24.1941 42.8927 24.3486 42.8386 24.5106C42.7838 24.6727 42.7221 24.8313 42.6527 24.987C42.5833 25.1427 42.5145 25.2902 42.4451 25.4308C42.3757 25.5713 42.3227 25.6933 42.285 25.7967C42.247 25.9001 42.2313 25.9838 42.2376 26.0459C42.2438 26.1087 42.2889 26.1401 42.3729 26.1401C42.4106 26.1401 42.4633 26.1087 42.5302 26.0459C42.5976 25.9832 42.6708 25.9013 42.7504 25.7997C42.8299 25.698 42.9129 25.5836 42.9994 25.4563C43.0852 25.3291 43.1665 25.2025 43.2415 25.0776C43.3172 24.9521 43.3842 24.8324 43.4428 24.718C43.5018 24.6036 43.5433 24.5095 43.5687 24.4363C43.5813 24.402 43.6019 24.3799 43.6319 24.3712C43.6612 24.3625 43.6884 24.3625 43.7139 24.3712C43.7393 24.3799 43.7589 24.3974 43.7735 24.4229C43.7882 24.4491 43.7871 24.4769 43.7704 24.5071C43.7362 24.5809 43.6884 24.6808 43.6252 24.8086C43.5621 24.9359 43.4875 25.0724 43.4016 25.217C43.3155 25.3617 43.2223 25.5074 43.1219 25.6544C43.0214 25.8014 42.9175 25.935 42.8104 26.0564C42.7029 26.1772 42.5951 26.2766 42.4863 26.3544C42.3775 26.4322 42.2725 26.4712 42.1716 26.4712C42.0872 26.4758 42.0164 26.4549 41.9575 26.4096C41.8988 26.3643 41.8504 26.3027 41.8127 26.2249C41.7747 26.147 41.7488 26.0599 41.7342 25.9623C41.7195 25.8653 41.7182 25.7671 41.7307 25.6672C41.7516 25.49 41.7918 25.3152 41.8504 25.1427C41.909 24.9701 41.9728 24.8046 42.0422 24.6471C42.1116 24.4897 42.1793 24.3451 42.2466 24.2132C42.3136 24.0814 42.3638 23.9669 42.3977 23.8699C42.4312 23.7729 42.443 23.698 42.4322 23.6463C42.4214 23.5946 42.3722 23.5708 42.2843 23.5748C42.2379 23.5794 42.173 23.6172 42.089 23.6881C42.0049 23.7596 41.9135 23.8501 41.8155 23.96C41.7168 24.0703 41.6173 24.1911 41.5162 24.323C41.4157 24.4549 41.3257 24.5809 41.2455 24.7018C41.1659 24.8702 41.0829 25.0375 40.9964 25.2036C40.9109 25.3698 40.8342 25.5266 40.7669 25.6736C40.6995 25.8206 40.6507 25.9501 40.619 26.0622C40.5876 26.1743 40.5862 26.2609 40.6155 26.3213C40.6326 26.3561 40.619 26.3916 40.5743 26.4282C40.5304 26.4648 40.4738 26.4845 40.4044 26.4862C40.335 26.4886 40.2642 26.4659 40.1906 26.4183C40.1173 26.3707 40.0615 26.2824 40.0235 26.1528C39.9904 26.0494 39.9921 25.9129 40.0298 25.7445C40.0678 25.576 40.1226 25.3959 40.1934 25.2036C40.2652 25.0114 40.3448 24.815 40.4327 24.614C40.5209 24.413 40.6005 24.2283 40.672 24.0599C40.7432 23.8914 40.7958 23.7467 40.8297 23.6259C40.8628 23.5051 40.8628 23.4273 40.8297 23.3924C40.8 23.3663 40.8136 23.3361 40.8701 23.3018C40.9266 23.2675 40.9982 23.2478 41.084 23.2437C41.1698 23.2396 41.2573 23.2588 41.3452 23.3018C41.4335 23.3448 41.4966 23.4313 41.5343 23.5609C41.5514 23.6172 41.5573 23.6788 41.5528 23.7456C41.549 23.8124 41.5382 23.8827 41.5214 23.9559C41.6009 23.8612 41.6815 23.77 41.7635 23.684C41.8451 23.5975 41.9282 23.522 42.0122 23.4575C42.0963 23.3924 42.1783 23.3407 42.2578 23.3018C42.3373 23.2629 42.4151 23.2437 42.4908 23.2437C42.6544 23.2396 42.7765 23.3128 42.8561 23.4639C42.9356 23.6149 42.9611 23.8095 42.9318 24.0471H42.9328Z" fill="#213B87"/>
<path d="M45.1196 23.7679C45.1196 23.7337 45.1294 23.7011 45.1478 23.671C45.1663 23.6408 45.1904 23.6146 45.2197 23.5931C45.1988 23.5415 45.1653 23.5154 45.1196 23.5154C45.0613 23.5113 44.9968 23.538 44.9253 23.596C44.8545 23.6541 44.7781 23.7383 44.6968 23.8486C44.6152 23.959 44.5304 24.0948 44.4428 24.2568C44.3549 24.4188 44.2674 24.5988 44.1798 24.7974C44.1254 24.9228 44.0804 25.0575 44.0448 25.2021C44.0096 25.3467 43.9894 25.4849 43.9855 25.6167C43.9813 25.7485 43.9939 25.864 44.0232 25.9634C44.0521 26.0626 44.1045 26.1277 44.1798 26.1579C44.2381 26.184 44.3002 26.177 44.3647 26.1387C44.4292 26.0998 44.4938 26.0394 44.559 25.9575C44.6235 25.8757 44.6905 25.7764 44.7596 25.6597C44.8287 25.543 44.8956 25.421 44.9602 25.2939C45.0247 25.1667 45.0875 25.039 45.1482 24.9118C45.2089 24.7846 45.2664 24.6668 45.3209 24.5588C45.3791 24.4165 45.4363 24.2812 45.4932 24.154C45.5494 24.0269 45.5964 23.9125 45.6341 23.8109C45.6718 23.7093 45.6973 23.6234 45.7095 23.5519C45.722 23.4805 45.7158 23.4323 45.691 23.4062C45.6617 23.38 45.6753 23.3499 45.7314 23.3156C45.7876 23.2814 45.8577 23.2616 45.9414 23.2575C46.0252 23.2535 46.1117 23.2726 46.2017 23.3156C46.2917 23.3586 46.3552 23.4451 46.3925 23.5746C46.4302 23.7 46.4242 23.8521 46.374 24.031C46.3241 24.2104 46.254 24.3968 46.164 24.5913C46.074 24.7858 45.9781 24.978 45.8759 25.1679C45.7737 25.3577 45.6875 25.5273 45.6191 25.6765C45.5501 25.8257 45.5106 25.9442 45.4998 26.0324C45.4894 26.1207 45.5326 26.1608 45.6285 26.152C45.6662 26.148 45.7185 26.1131 45.7855 26.0487C45.8521 25.9837 45.9254 25.9006 46.0046 25.7996C46.0838 25.698 46.1661 25.5848 46.2523 25.4594C46.3377 25.3339 46.4173 25.2091 46.4905 25.0837C46.5634 24.9583 46.629 24.8398 46.6876 24.7277C46.7459 24.6157 46.7877 24.5228 46.8128 24.449C46.8251 24.4148 46.846 24.3927 46.8756 24.384C46.9049 24.3753 46.9318 24.3753 46.9573 24.384C46.9824 24.3927 47.0023 24.4101 47.0169 24.4357C47.0316 24.4618 47.0302 24.4897 47.0134 24.5199C46.9796 24.5936 46.9318 24.6935 46.869 24.8212C46.8062 24.9484 46.7319 25.0848 46.6464 25.2294C46.5606 25.374 46.4678 25.5197 46.3681 25.6666C46.268 25.8135 46.1647 25.9471 46.058 26.0684C45.9512 26.1892 45.8438 26.2885 45.7353 26.3663C45.6268 26.4441 45.5225 26.483 45.422 26.483C45.263 26.4917 45.1437 26.4249 45.0645 26.2821C44.9853 26.1399 44.9563 25.9581 44.9769 25.738C44.8977 25.8722 44.814 25.9941 44.7264 26.1039C44.6389 26.2142 44.5437 26.3013 44.4414 26.3663C44.3392 26.4314 44.2304 26.4697 44.1156 26.483C44.0005 26.4958 43.8746 26.4726 43.7364 26.4116C43.5697 26.3425 43.4494 26.2409 43.3764 26.1074C43.3035 25.9738 43.2606 25.828 43.2477 25.6701C43.2355 25.5128 43.2477 25.3484 43.2854 25.1777C43.3231 25.007 43.3691 24.8508 43.4232 24.708C43.5237 24.445 43.6349 24.2191 43.7584 24.031C43.8816 23.8434 44.0124 23.6901 44.1502 23.5711C44.2876 23.4526 44.4299 23.3673 44.5757 23.315C44.7219 23.2634 44.8702 23.2395 45.0209 23.2436C45.0707 23.2477 45.1241 23.2575 45.1803 23.2726C45.2364 23.2877 45.2888 23.3127 45.3369 23.347C45.3847 23.3818 45.4259 23.4277 45.459 23.4863C45.4921 23.5444 45.5089 23.617 45.5089 23.7035C45.5089 23.7987 45.4883 23.8631 45.4461 23.898C45.4123 23.9369 45.3687 23.956 45.3146 23.956C45.2647 23.956 45.2197 23.9386 45.1799 23.9044C45.1398 23.8701 45.1203 23.8243 45.1203 23.7685L45.1196 23.7679Z" fill="#213B87"/>
<path d="M18.6559 36.4926C18.6559 36.4926 20.4408 36.4169 20.9058 36.5303C20.9058 36.5303 20.9058 36.606 21.2831 36.2781C21.6604 35.9505 22.4016 35.3327 22.4016 35.3327C22.4016 35.3327 22.5274 35.219 22.603 35.219C22.6785 35.219 23.2439 35.5479 23.2439 35.5479L24.1958 34.5127L21.8738 34.6637L28.6487 28.1082L25.2301 33.0755L27.8572 32.8486L24.3798 36.3405L24.588 36.5181C24.588 36.5181 24.7455 36.561 24.6013 36.8449C24.434 37.1753 24.2996 37.1603 24.2996 37.1603C24.2996 37.1603 24.3625 37.3113 24.2113 37.5007C24.0608 37.6898 23.9471 37.7655 23.9471 37.7655C23.9471 37.7655 23.905 37.8534 23.721 37.791C23.721 37.791 23.8179 38.0463 23.6143 38.2354C23.3985 38.4349 23.3691 38.497 23.2307 38.421C23.2307 38.421 23.3812 38.5092 23.1678 38.7109C22.9912 38.8776 22.9589 39.1113 22.4888 38.6735L22.2499 38.4593L21.6592 39.1211L24.0348 39.2177L15.6758 45.4054L20.6912 39.8585H19.2582L21.3823 37.5635C21.3823 37.5635 21.2946 37.7024 21.1562 37.4753C21.1562 37.4753 21.2317 37.551 20.9173 37.551C20.6029 37.551 18.0266 37.6389 17.7122 37.6643L18.6548 36.4922L18.6559 36.4926Z" fill="#FFCC00"/>
<path d="M21.0811 37.0842C21.0811 37.0842 21.1676 37.4421 21.5132 37.2304C21.8587 37.0176 22.1751 36.7657 22.1751 36.7657L22.6793 36.4999C22.6793 36.4999 22.8523 36.4336 22.9098 36.1284L22.9818 35.8368C22.9818 35.8368 22.9673 36.3014 23.4139 35.8368C23.4139 35.8368 23.0975 36.1553 23.1259 36.3677C23.1549 36.5805 23.1549 36.952 23.5289 36.9782C23.5289 36.9782 23.7595 37.1651 23.961 36.5669C24.1625 35.9697 24.2636 35.8368 24.2636 35.8368C24.2636 35.8368 24.4651 35.5846 24.1341 35.4255C23.8031 35.2661 23.6617 35.2008 23.5751 35.1353" stroke="white" stroke-width="1.04651"/>
<path d="M23.7837 36.4168L24.366 36.7046C24.366 36.7046 24.5312 36.8675 24.6712 36.6167C24.8615 36.2752 24.9893 36.24 24.6712 36.0268C24.3532 35.8137 24.0755 35.6755 24.0755 35.6755" stroke="white" stroke-width="1.04651"/>
<path d="M24.2689 36.7566C24.4734 36.9704 24.0654 38.1516 23.7899 37.7581C23.7884 37.7564 23.5347 37.5341 23.3877 37.3322C23.2403 37.1295 23.2432 36.8787 23.2432 36.8787" stroke="white" stroke-width="1.04651"/>
<path d="M23.2774 37.0891L23.017 36.8157C23.017 36.8157 22.9147 36.6161 22.8128 36.9521C22.7106 37.288 22.6271 37.4715 22.8128 37.6857C22.9961 37.8974 23.3699 38.3331 23.3793 38.3443C23.5591 38.5546 23.9384 37.7314 23.7155 37.5482" stroke="white" stroke-width="1.04651"/>
<path d="M22.4247 37.2974L22.2522 37.5674C22.2522 37.5674 22.0495 37.7386 22.2522 38.0819C22.455 38.4248 22.7539 38.8535 22.7539 38.8535C22.7539 38.8535 22.8817 39.0764 23.106 38.6993C23.3304 38.3226 23.2628 38.295 23.0242 38.0243" stroke="white" stroke-width="1.04651"/>
<path d="M19.4242 37.8949C19.1236 38.1453 18.7885 38.3539 18.4183 38.5193C18.0481 38.685 17.6378 38.799 17.1868 38.8629C16.7358 38.9271 16.2317 38.9271 15.6739 38.8629H15.4326C15.3037 38.8524 15.167 38.8287 15.0223 38.791C14.8776 38.754 14.7431 38.6926 14.6199 38.6068C14.4961 38.5214 14.3916 38.4066 14.3062 38.2629C14.2203 38.1192 14.1774 37.9402 14.1774 37.7267C14.1774 37.4926 14.2254 37.3374 14.322 37.2628C14.4294 37.156 14.5475 37.1026 14.6764 37.1026C14.8053 37.1026 14.9205 37.1452 15.0223 37.2307C15.124 37.3161 15.1754 37.4285 15.1754 37.5666C15.1754 37.7696 15.0839 37.9133 14.9019 37.9988C14.9663 38.1268 15.0573 38.191 15.1754 38.191C15.315 38.2015 15.4784 38.1349 15.6665 37.9908C15.8542 37.8471 16.0531 37.6385 16.2622 37.3667C16.4713 37.0946 16.6889 36.7615 16.9144 36.3666C17.1399 35.9721 17.3654 35.5238 17.5903 35.0225C17.7299 34.7129 17.8452 34.374 17.9362 34.006C18.0272 33.638 18.0809 33.2885 18.0973 32.9575C18.1131 32.6271 18.0837 32.3411 18.0085 32.1012C17.9334 31.8613 17.7938 31.7146 17.5897 31.6612C17.4072 31.6185 17.2168 31.6506 17.0184 31.7573C16.8194 31.8641 16.6211 32.0214 16.4227 32.2293C16.2238 32.4372 16.0254 32.6856 15.8271 32.9733C15.6281 33.2615 15.4382 33.5599 15.2557 33.8695C15.0409 34.4246 14.786 35.0246 14.491 35.6696C14.196 36.3153 13.8897 36.9718 13.5738 37.6381C13.2573 38.3051 12.9487 38.9529 12.6481 39.5829C12.348 40.2122 12.0846 40.7885 11.8591 41.311C11.6336 41.8336 11.4647 42.2766 11.3522 42.6394C11.2397 43.0018 11.2154 43.2474 11.2798 43.3754C11.3228 43.4609 11.2878 43.5485 11.1753 43.6395C11.0628 43.7302 10.9176 43.7783 10.7407 43.7836C10.5638 43.7885 10.3813 43.733 10.1936 43.6154C10.006 43.4979 9.86359 43.2795 9.76693 42.9593C9.7025 42.7671 9.72116 42.4573 9.82344 42.031C9.92576 41.604 10.0812 41.1049 10.2903 40.5345C10.4994 39.9638 10.7435 39.3474 11.0227 38.686C11.3019 38.0246 11.589 37.3576 11.884 36.6858C12.179 36.0136 12.4633 35.3602 12.7374 34.7252C13.0109 34.0903 13.25 33.5222 13.4534 33.021C13.6569 32.5198 13.8078 32.1035 13.9039 31.7725C14.0005 31.4421 14.0163 31.2443 13.9519 31.1803C13.8767 31.1162 13.9117 31.0415 14.0564 30.9561C14.2011 30.8707 14.3837 30.8229 14.6035 30.8122C14.8234 30.8016 15.046 30.8499 15.2715 30.9561C15.497 31.0628 15.6581 31.2764 15.7542 31.5961C15.7864 31.7135 15.7915 31.8843 15.77 32.108C16.1774 31.6174 16.6234 31.2573 17.106 31.0274C17.5886 30.7982 18.1306 30.801 18.7319 31.0353C19.1609 31.2168 19.4695 31.4702 19.6577 31.7955C19.8453 32.1209 19.9555 32.4783 19.9877 32.8676C20.0199 33.257 19.9877 33.6627 19.8911 34.0841C19.7944 34.5055 19.6763 34.8921 19.5367 35.2444C19.2575 35.9382 18.9467 36.525 18.6031 37.005C18.2595 37.4853 17.9 37.869 17.5248 38.1572" fill="#FFCC00"/>
<path d="M59.651 30C59.651 13.6242 46.3757 0.348877 29.9998 0.348877C13.6239 0.348877 0.348633 13.6242 0.348633 30C0.348633 46.3759 13.6239 59.6512 29.9998 59.6512C46.3757 59.6512 59.651 46.3759 59.651 30Z" stroke="white" stroke-width="0.697674"/>
</g>
<defs>
<clipPath id="clip0_6291_17708">
<rect width="60" height="60" fill="white"/>
</clipPath>
</defs>
</svg>
