<svg width="51" height="50" viewBox="0 0 51 50" fill="none" xmlns="http://www.w3.org/2000/svg">
<rect x="0.5" width="50" height="50" rx="25" fill="#163466"/>
<path d="M22.5 35H28.5C33.5 35 35.5 33 35.5 28V22C35.5 17 33.5 15 28.5 15H22.5C17.5 15 15.5 17 15.5 22V28C15.5 33 17.5 35 22.5 35Z" stroke="#FACA22" stroke-width="1.5" stroke-linecap="round" stroke-linejoin="round"/>
<path d="M22.6001 25V23.52C22.6001 21.61 23.9501 20.84 25.6001 21.79L26.8801 22.53L28.1601 23.27C29.8101 24.22 29.8101 25.78 28.1601 26.73L26.8801 27.47L25.6001 28.21C23.9501 29.16 22.6001 28.38 22.6001 26.48V25Z" stroke="#FACA22" stroke-width="1.5" stroke-miterlimit="10" stroke-linecap="round" stroke-linejoin="round"/>
</svg>
